<?xml version="1.0" encoding="iso-8859-1"?>
<!-- Generator: Adobe Illustrator 19.0.0, SVG Export Plug-In . SVG Version: 6.00 Build 0)  -->
<svg version="1.1" id="Layer_1" xmlns="http://www.w3.org/2000/svg" xmlns:xlink="http://www.w3.org/1999/xlink" x="0px" y="0px"
	 viewBox="0 0 512 512" style="enable-background:new 0 0 512 512;" xml:space="preserve">
<polygon style="fill:#F490C0;" points="512,166.957 478.609,166.957 478.609,133.565 356.174,133.565 356.174,33.391 
	322.783,33.391 322.783,0 33.391,0 33.391,33.391 0,33.391 0,478.609 33.391,478.609 33.391,512 322.783,512 322.783,478.609 
	356.174,478.609 356.174,311.652 478.609,311.652 478.609,278.261 512,278.261 "/>
<polygon style="fill:#004FAC;" points="478.609,166.957 478.609,133.565 289.391,133.565 289.391,66.783 66.783,66.783 
	66.783,378.435 222.609,378.435 289.391,378.435 289.391,345.043 356.174,345.043 356.174,311.652 478.609,311.652 478.609,278.261 
	512,278.261 512,166.957 "/>
<g>
	<rect x="66.783" y="133.565" style="fill:#FFFFFF;" width="66.783" height="33.391"/>
	<rect x="133.565" y="66.783" style="fill:#FFFFFF;" width="33.391" height="66.783"/>
</g>
<polygon style="fill:#9BC9FF;" points="512,166.957 478.609,166.957 478.609,133.565 166.957,133.565 166.957,166.957 
	133.565,166.957 133.565,278.261 166.957,278.261 166.957,311.652 222.609,311.652 222.609,345.043 222.609,378.435 
	289.391,378.435 289.391,345.043 356.174,345.043 356.174,311.652 478.609,311.652 478.609,278.261 512,278.261 "/>
<rect y="33.391" width="33.391" height="445.217"/>
<rect x="33.391" width="289.391" height="33.391"/>
<rect x="33.391" y="478.609" width="289.391" height="33.391"/>
<rect x="155.826" y="411.826" width="44.522" height="33.391"/>
<polygon points="322.783,278.261 322.783,311.652 289.391,311.652 289.391,345.043 322.783,345.043 322.783,478.609 
	356.174,478.609 356.174,311.652 478.609,311.652 478.609,278.261 "/>
<rect x="133.565" y="166.957" width="33.391" height="111.304"/>
<polygon points="289.391,133.565 289.391,66.783 66.783,66.783 66.783,378.435 289.391,378.435 289.391,345.043 256,345.043 
	256,278.261 166.957,278.261 166.957,311.652 222.609,311.652 222.609,345.043 100.174,345.043 100.174,100.174 256,100.174 
	256,133.565 166.957,133.565 166.957,166.957 478.609,166.957 478.609,133.565 356.174,133.565 356.174,33.391 322.783,33.391 
	322.783,133.565 "/>
<rect x="478.609" y="166.957" width="33.391" height="111.304"/>
<g>
</g>
<g>
</g>
<g>
</g>
<g>
</g>
<g>
</g>
<g>
</g>
<g>
</g>
<g>
</g>
<g>
</g>
<g>
</g>
<g>
</g>
<g>
</g>
<g>
</g>
<g>
</g>
<g>
</g>
</svg>
